<svg width="40" height="41" viewBox="0 0 40 41" fill="none" xmlns="http://www.w3.org/2000/svg">
<path d="M34.2187 28.4404C32.9058 28.4404 31.6946 28.881 30.723 29.6211L24.6004 23.4984C25.3404 22.5269 25.7812 21.3154 25.7812 20.0026C25.7812 19.3759 25.6796 18.7726 25.4942 18.207L31.7959 15.1517C32.6197 16.2908 33.9587 17.034 35.4688 17.034C37.9672 17.034 39.9999 15.0013 39.9999 12.5028C39.9999 10.0043 37.9672 7.9716 35.4688 7.9716C32.9703 7.9716 30.9376 10.0043 30.9376 12.5028C30.9376 12.9342 30.9994 13.3511 31.1126 13.7467L24.8113 16.8019C23.911 15.4532 22.4594 14.5036 20.7813 14.2758V12.1989C21.8658 11.8644 22.6563 10.8528 22.6563 9.66008C22.6563 8.19537 21.4647 7.00387 20.0001 7.00387C18.5354 7.00387 17.3438 8.19544 17.3438 9.66008C17.3438 10.853 18.1343 11.8645 19.2188 12.1989V14.2758C18.208 14.413 17.2796 14.8116 16.5042 15.4023L11.454 10.3521C12.6855 8.7733 13.1207 6.68166 12.5873 4.7216C12.474 4.30516 12.0445 4.05944 11.6283 4.17296C11.212 4.28625 10.9664 4.71558 11.0797 5.13194C11.5337 6.79995 11.0606 8.59383 9.84572 9.81923C9.84064 9.82408 9.83525 9.82822 9.83025 9.83322C9.82587 9.83759 9.82212 9.84244 9.8179 9.84689C7.92831 11.7223 4.86543 11.7182 2.98139 9.83408C1.09282 7.94558 1.09282 4.87262 2.98139 2.98405C4.17577 1.78959 5.87199 1.30744 7.51891 1.69403C7.9387 1.79248 8.35936 1.53215 8.45804 1.11204C8.55664 0.692008 8.29607 0.271586 7.87604 0.172907C5.6987 -0.338224 3.45588 0.299479 1.87631 1.87897C-0.621449 4.37673 -0.621449 8.44093 1.87631 10.9388C3.12523 12.1877 4.76566 12.8121 6.40617 12.8121C7.80088 12.8121 9.1945 12.359 10.3486 11.4564L15.3992 16.507C14.6592 17.4785 14.2186 18.6899 14.2186 20.0025C14.2186 23.1903 16.812 25.7837 19.9998 25.7837C21.3126 25.7837 22.5238 25.3431 23.4953 24.6031L29.618 30.7258C28.878 31.6973 28.4374 32.9087 28.4374 34.2214C28.4374 37.4092 31.0308 40.0026 34.2186 40.0026C37.4064 40.0026 39.9998 37.4092 39.9998 34.2214C39.9999 31.0337 37.4064 28.4404 34.2187 28.4404ZM35.4686 9.5339C37.1055 9.5339 38.4373 10.8657 38.4373 12.5026C38.4373 14.1395 37.1055 15.4714 35.4686 15.4714C33.8317 15.4714 32.4999 14.1395 32.4999 12.5026C32.4999 10.8656 33.8317 9.5339 35.4686 9.5339ZM18.9061 9.65977C18.9061 9.05668 19.3966 8.56602 19.9998 8.56602C20.6029 8.56602 21.0936 9.0566 21.0936 9.65977C21.0936 10.2629 20.603 10.7535 19.9998 10.7535C19.3967 10.7535 18.9061 10.2629 18.9061 9.65977ZM19.9998 24.2213C17.6736 24.2213 15.7811 22.3288 15.7811 20.0026C15.7811 17.6763 17.6736 15.7838 19.9998 15.7838C22.3261 15.7838 24.2186 17.6763 24.2186 20.0026C24.2186 22.3287 22.3261 24.2213 19.9998 24.2213ZM34.2187 38.4404C31.8924 38.4404 29.9999 36.5479 29.9999 34.2216C29.9999 31.8954 31.8924 30.0029 34.2187 30.0029C36.5449 30.0029 38.4374 31.8954 38.4374 34.2216C38.4373 36.5479 36.5448 38.4404 34.2187 38.4404Z" fill="white"/>
<path d="M10.9629 1.90585L10.9349 1.87765C10.629 1.57333 10.1345 1.57442 9.83001 1.8803C9.52561 2.18618 9.52678 2.68075 9.83266 2.98515L9.85282 3.00554C10.0056 3.15977 10.2068 3.23696 10.4079 3.23696C10.6065 3.23696 10.8053 3.16165 10.9576 3.0107C11.2643 2.70708 11.2666 2.21244 10.9629 1.90585Z" fill="white"/>
<path d="M12.9547 27.0477C12.6496 26.7426 12.1549 26.7426 11.8498 27.0477L7.13263 31.7649C6.39578 31.2463 5.49884 30.9404 4.53119 30.9404C2.03273 30.9404 0 32.9732 0 35.4716C0 37.9701 2.03273 40.0028 4.53119 40.0028C7.02965 40.0028 9.06238 37.9701 9.06238 35.4716C9.06238 34.5038 8.75642 33.6067 8.23755 32.8698L12.9547 28.1527C13.2598 27.8476 13.2598 27.3528 12.9547 27.0477ZM4.53119 38.4404C2.89427 38.4404 1.56246 37.1085 1.56246 35.4716C1.56246 33.8347 2.89427 32.5029 4.53119 32.5029C6.1681 32.5029 7.49992 33.8347 7.49992 35.4716C7.49992 37.1085 6.1681 38.4404 4.53119 38.4404Z" fill="white"/>
<path d="M14.8106 25.1924C14.6653 25.047 14.4637 24.9634 14.2583 24.9634C14.0529 24.9634 13.8512 25.047 13.706 25.1924C13.5607 25.3377 13.4771 25.5393 13.4771 25.7447C13.4771 25.9501 13.5607 26.1517 13.706 26.297C13.8513 26.4423 14.0529 26.5259 14.2583 26.5259C14.4638 26.5259 14.6653 26.4423 14.8106 26.297C14.9559 26.1517 15.0395 25.9501 15.0395 25.7447C15.0395 25.5393 14.9558 25.3376 14.8106 25.1924Z" fill="white"/>
</svg>
