<svg width="16" height="20" viewBox="0 0 16 20" fill="none" xmlns="http://www.w3.org/2000/svg">
<path d="M12.4513 5.01255C12.3783 4.91603 12.2556 4.87126 12.1376 4.89839C12.0197 4.92549 11.9287 5.01933 11.9052 5.13798L11.6324 6.51851L8.27226 0.163423C8.21911 0.0629117 8.11469 0 8.00096 0C8.00049 0 8.00003 0 7.99952 0C7.88529 0.000542676 7.78075 0.064501 7.7283 0.165981L3.07745 9.16278L2.51128 7.36989C2.47531 7.25593 2.37647 7.17321 2.25797 7.15794C2.13947 7.14255 2.02283 7.19748 1.95907 7.29853C0.659747 9.35752 0.000976562 11.0529 0.000976562 12.3375C0.000976562 14.4496 0.836737 16.3748 2.35437 17.7586C3.83092 19.105 5.83626 19.8465 8.00096 19.8465C10.1657 19.8465 12.171 19.105 13.6475 17.7586C15.1652 16.3748 16.0009 14.4496 16.0009 12.3376C16.0009 10.5964 14.8067 8.13193 12.4513 5.01255Z" fill="#FF7452"/>
<path d="M9.8005 19.069C7.63581 19.069 5.63046 18.3275 4.15392 16.9812C2.63628 15.5974 1.80052 13.6722 1.80052 11.5601C1.80052 10.6515 2.13055 9.53716 2.78319 8.2342L2.51027 7.36991C2.47429 7.25595 2.37545 7.17323 2.25695 7.15795C2.13846 7.14257 2.02182 7.19749 1.95805 7.29855C0.65877 9.35758 0 11.053 0 12.3376C0 14.4496 0.835761 16.3749 2.35339 17.7586C3.82998 19.105 5.83532 19.8465 8.00002 19.8465C9.58746 19.8465 11.0889 19.4473 12.3592 18.7036C11.5502 18.9439 10.6888 19.069 9.8005 19.069Z" fill="#E24642"/>
<path d="M2.92578 13.7289C2.92578 10.9265 7.99992 5.21741 7.99992 5.21741C7.99992 5.21741 13.0741 10.9265 13.0741 13.7289C13.0741 16.5312 10.8023 18.803 7.99992 18.803C5.19758 18.803 2.92578 16.5312 2.92578 13.7289Z" fill="#FFD652"/>
<path d="M9.22753 17.5753C6.42519 17.5753 4.15339 15.3035 4.15339 12.5012C4.15339 10.5519 6.60788 7.19705 8.10264 5.33458C8.03667 5.25868 7.99992 5.21729 7.99992 5.21729C7.99992 5.21729 2.92578 10.9264 2.92578 13.7288C2.92578 16.5311 5.19758 18.8029 7.99992 18.8029C9.71459 18.8029 11.2304 17.9523 12.149 16.6502C11.3229 17.2329 10.3153 17.5753 9.22753 17.5753Z" fill="#FB9D46"/>
</svg>
