<svg width="16" height="16" viewBox="0 0 16 16" fill="none" xmlns="http://www.w3.org/2000/svg">
<path d="M15.8855 15.5557V15.555H15.8894V9.85001C15.8894 7.05909 15.2885 4.90918 12.0258 4.90918C10.4572 4.90918 9.40464 5.76992 8.97492 6.58594H8.92955V5.16974H5.83594V15.555H9.05723V10.4126C9.05723 9.05863 9.3139 7.74937 10.9907 7.74937C12.6428 7.74937 12.6674 9.29455 12.6674 10.4995V15.5557H15.8855Z" fill="white"/>
<path d="M0.590332 5.17041H3.81552V15.5557H0.590332V5.17041Z" fill="white"/>
<path d="M2.20146 0C1.17026 0 0.333496 0.836759 0.333496 1.86796C0.333496 2.89917 1.17026 3.75343 2.20146 3.75343C3.23266 3.75343 4.06942 2.89917 4.06942 1.86796C4.06877 0.836759 3.23201 0 2.20146 0V0Z" fill="white"/>
</svg>
