<svg width="714" height="921" viewBox="0 0 714 921" fill="none" xmlns="http://www.w3.org/2000/svg">
<g opacity="0.6">
<mask id="mask0" mask-type="alpha" maskUnits="userSpaceOnUse" x="296" y="49" width="460" height="621">
<rect x="296" y="49" width="460" height="621" fill="#C4C4C4"/>
</mask>
<g mask="url(#mask0)">
<path d="M213.645 528.064V601.621C213.645 609.21 219.831 615.391 227.425 615.391H386.596C394.19 615.391 400.375 609.21 400.375 601.621V568.778C400.375 561.189 394.19 555.008 386.596 555.008H341.89C334.969 555.008 329.332 549.375 329.332 542.459V489.885C329.332 482.969 334.969 477.335 341.89 477.335H485.277C492.198 477.335 497.835 482.969 497.835 489.885V605.564C497.835 613.153 504.02 619.334 511.615 619.334H572.12C579.714 619.334 585.899 613.153 585.899 605.564V549.047C585.899 542.131 591.536 536.498 598.458 536.498H699.691C700.004 538.986 702.103 540.926 704.671 540.926C707.458 540.926 709.713 538.673 709.713 535.887C709.713 533.102 707.458 530.849 704.671 530.849C702.087 530.849 699.989 532.789 699.691 535.277H598.426C590.832 535.277 584.647 541.458 584.647 549.047V605.564C584.647 612.481 579.01 618.098 572.088 618.098H511.583C504.662 618.098 499.025 612.465 499.025 605.564V489.885C499.025 482.296 492.84 476.115 485.245 476.115H341.859C334.264 476.115 328.079 482.296 328.079 489.885V542.459C328.079 550.048 334.264 556.229 341.859 556.229H386.564C393.485 556.229 399.123 561.862 399.123 568.778V601.621C399.123 608.537 393.485 614.17 386.564 614.17H227.425C220.504 614.17 214.882 608.537 214.882 601.621V528.064C217.372 527.751 219.314 525.654 219.314 523.088C219.314 520.303 217.059 518.05 214.272 518.05C211.484 518.05 209.23 520.303 209.23 523.088C209.214 525.654 211.156 527.766 213.645 528.064Z" fill="url(#paint0_linear)"/>
<path d="M201.776 414.622H294.005C301.6 414.622 307.785 408.441 307.785 400.852V369.26C307.785 362.344 313.422 356.711 320.343 356.711H356.28C356.593 359.199 358.691 361.139 361.26 361.139C364.047 361.139 366.302 358.886 366.302 356.101C366.302 353.316 364.047 351.063 361.26 351.063C358.691 351.063 356.578 353.003 356.28 355.491H320.328C312.733 355.491 306.548 361.671 306.548 369.26V400.852C306.548 407.768 300.911 413.401 293.99 413.401H201.76C194.839 413.401 189.202 407.768 189.202 400.852V372.828C189.202 365.912 194.839 360.279 201.76 360.279H237.822C245.417 360.279 251.602 354.098 251.602 346.509V319.377C251.602 311.788 245.417 305.607 237.822 305.607H205.346C198.425 305.607 192.788 299.974 192.788 293.058V266.818C192.788 259.902 198.425 254.269 205.346 254.269H232.498C240.093 254.269 246.278 248.088 246.278 240.499V231.174C246.278 224.258 251.915 218.625 258.836 218.625H302.931C309.852 218.625 315.489 224.258 315.489 231.174V247.478C312.999 247.791 311.058 249.888 311.058 252.454C311.058 255.239 313.313 257.492 316.1 257.492C318.887 257.492 321.142 255.239 321.142 252.454C321.142 249.888 319.2 247.775 316.711 247.478V231.189C316.711 223.6 310.525 217.42 302.931 217.42H258.82C251.226 217.42 245.041 223.6 245.041 231.189V240.515C245.041 247.431 239.404 253.064 232.482 253.064H205.346C197.751 253.064 191.566 259.245 191.566 266.834V293.074C191.566 300.663 197.751 306.844 205.346 306.844H237.853C244.775 306.844 250.412 312.477 250.412 319.393V346.525C250.412 353.441 244.775 359.074 237.853 359.074H201.776C194.181 359.074 187.996 365.255 187.996 372.844V400.868C187.996 408.441 194.181 414.622 201.776 414.622Z" fill="url(#paint1_linear)"/>
<path d="M450.092 328.906C450.405 331.394 452.503 333.334 455.071 333.334C457.858 333.334 460.113 331.081 460.113 328.296C460.113 325.511 457.858 323.258 455.071 323.258C452.503 323.258 450.389 325.198 450.092 327.686H403.131C396.21 327.686 390.573 322.053 390.573 315.137V191.79C390.573 184.874 396.21 179.241 403.131 179.241H559.64C566.561 179.241 572.198 184.874 572.198 191.79V222.724H523.734C516.14 222.724 509.955 228.905 509.955 236.494V250.999C509.955 258.588 516.14 264.768 523.734 264.768H559.655C567.25 264.768 573.435 258.588 573.435 250.999V223.945H609.607C609.92 226.433 612.018 228.373 614.586 228.373C617.373 228.373 619.628 226.12 619.628 223.334C619.628 220.549 617.373 218.296 614.586 218.296C612.018 218.296 609.904 220.236 609.607 222.724H573.435V191.79C573.435 184.201 567.25 178.02 559.655 178.02H403.147C395.552 178.02 389.367 184.201 389.367 191.79V315.137C389.367 322.726 395.552 328.906 403.147 328.906H450.092ZM572.198 250.999C572.198 257.915 566.561 263.532 559.64 263.532H523.734C516.813 263.532 511.176 257.899 511.176 250.999V236.494C511.176 229.578 516.813 223.945 523.734 223.945H572.198V250.999Z" fill="url(#paint2_linear)"/>
<path d="M293.88 564.741V407.017C293.88 400.101 299.518 394.468 306.439 394.468H370.874C377.795 394.468 383.432 400.101 383.432 407.017V489.806C383.432 497.395 389.618 503.576 397.212 503.576H440.602C447.523 503.576 453.161 509.209 453.161 516.125V538.407C450.671 538.719 448.729 540.816 448.729 543.382C448.729 546.168 450.984 548.421 453.771 548.421C456.559 548.421 458.813 546.168 458.813 543.382C458.813 540.816 456.872 538.704 454.382 538.407V516.125C454.382 508.536 448.197 502.355 440.602 502.355H397.212C390.291 502.355 384.654 496.722 384.654 489.806V407.017C384.654 399.428 378.469 393.247 370.874 393.247H306.423C298.829 393.247 292.643 399.428 292.643 407.017V564.741C292.643 571.657 287.006 577.29 280.085 577.29H203.812C196.89 577.29 191.269 571.657 191.269 564.741V517.486C193.759 517.173 195.7 515.077 195.7 512.51C195.7 509.725 193.446 507.472 190.658 507.472C187.871 507.472 185.616 509.725 185.616 512.51C185.616 515.077 187.558 517.189 190.048 517.486V564.741C190.048 572.33 196.233 578.51 203.827 578.51H280.101C287.695 578.51 293.88 572.33 293.88 564.741Z" fill="url(#paint3_linear)"/>
<path d="M163.146 416.296C165.714 416.296 167.828 414.355 168.126 411.868H238.136C245.73 411.868 251.915 405.687 251.915 398.098V350.28C251.915 343.364 257.552 337.731 264.474 337.731H356.828C364.423 337.731 370.608 331.55 370.608 323.961V309.159C370.608 302.243 376.245 296.61 383.166 296.61H462.806C469.728 296.61 475.365 302.243 475.365 309.159V366.318C475.365 373.907 481.55 380.088 489.144 380.088H571.869C572.182 382.576 574.281 384.516 576.849 384.516C579.636 384.516 581.891 382.263 581.891 379.478C581.891 376.693 579.636 374.439 576.849 374.439C574.281 374.439 572.167 376.38 571.869 378.868H489.129C482.208 378.868 476.57 373.235 476.57 366.318V309.159C476.57 301.57 470.385 295.39 462.791 295.39H383.151C375.556 295.39 369.371 301.57 369.371 309.159V323.961C369.371 330.878 363.734 336.511 356.828 336.511H264.474C256.879 336.511 250.694 342.691 250.694 350.28V398.098C250.694 405.014 245.057 410.647 238.136 410.647H168.126C167.812 408.159 165.714 406.219 163.146 406.219C160.359 406.219 158.104 408.472 158.104 411.257C158.104 414.043 160.359 416.296 163.146 416.296Z" fill="url(#paint4_linear)"/>
<path d="M316.178 91.4282C308.584 91.4282 302.398 97.6088 302.398 105.198V272.107C302.398 279.696 308.584 285.876 316.178 285.876H455.587C463.182 285.876 469.367 279.696 469.367 272.107V215.605C469.367 208.688 475.004 203.071 481.925 203.071H541.71C542.023 205.559 544.122 207.499 546.69 207.499C549.477 207.499 551.732 205.246 551.732 202.461C551.732 199.676 549.477 197.422 546.69 197.422C544.122 197.422 542.008 199.363 541.71 201.851H481.925C474.331 201.851 468.146 208.031 468.146 215.62V272.122C468.146 279.038 462.509 284.671 455.587 284.671H316.178C309.257 284.671 303.62 279.038 303.62 272.122V105.198C303.62 98.2816 309.257 92.6486 316.178 92.6486H470.667C470.98 95.1366 473.078 97.0768 475.646 97.0768C478.433 97.0768 480.688 94.8236 480.688 92.0384C480.688 89.2532 478.433 87 475.646 87C473.078 87 470.964 88.9403 470.667 91.4282H316.178Z" fill="url(#paint5_linear)"/>
<path d="M606.099 289.819C603.515 289.819 601.417 291.76 601.119 294.248H468.443C461.522 294.248 455.901 288.615 455.901 281.699V261.545C455.901 253.956 449.715 247.775 442.121 247.775H346.854C339.259 247.775 333.074 253.956 333.074 261.545V311.475C333.074 318.391 327.437 324.024 320.531 324.024H205.722C205.409 321.536 203.31 319.596 200.742 319.596C197.955 319.596 195.7 321.849 195.7 324.635C195.7 327.42 197.955 329.673 200.742 329.673C203.31 329.673 205.424 327.733 205.722 325.245H320.516C328.11 325.245 334.295 319.064 334.295 311.475V261.545C334.295 254.629 339.932 248.996 346.854 248.996H442.121C449.042 248.996 454.679 254.629 454.679 261.545V281.699C454.679 289.287 460.864 295.468 468.459 295.468H601.135C601.448 297.956 603.546 299.896 606.114 299.896C608.902 299.896 611.157 297.643 611.157 294.858C611.157 292.073 608.886 289.819 606.099 289.819Z" fill="url(#paint6_linear)"/>
<path d="M601.448 507.222C598.864 507.222 596.766 509.162 596.469 511.65H560C552.405 511.65 546.22 517.831 546.22 525.42V598.398C546.22 605.314 540.583 610.947 533.677 610.947H470.808C463.886 610.947 458.249 605.314 458.249 598.398V578.448C458.249 570.859 452.064 564.678 444.47 564.678H380.473C372.878 564.678 366.693 570.859 366.693 578.448V632.243C366.693 639.159 361.056 644.792 354.135 644.792H274.354C267.432 644.792 261.795 639.159 261.795 632.243V510.054C264.285 509.741 266.227 507.644 266.227 505.078C266.227 502.293 263.972 500.04 261.185 500.04C258.397 500.04 256.143 502.293 256.143 505.078C256.143 507.66 258.084 509.757 260.574 510.054V632.243C260.574 639.832 266.759 646.013 274.354 646.013H354.15C361.745 646.013 367.93 639.832 367.93 632.243V578.448C367.93 571.532 373.567 565.899 380.488 565.899H444.485C451.406 565.899 457.044 571.532 457.044 578.448V598.398C457.044 605.987 463.229 612.168 470.823 612.168H533.693C541.287 612.168 547.473 605.987 547.473 598.398V525.42C547.473 518.504 553.11 512.871 560.031 512.871H596.5C596.813 515.358 598.911 517.299 601.479 517.299C604.267 517.299 606.521 515.045 606.521 512.26C606.521 509.475 604.235 507.222 601.448 507.222Z" fill="url(#paint7_linear)"/>
<path d="M690.937 469.387C688.354 469.387 686.255 471.327 685.958 473.815H599.209C592.288 473.815 586.65 468.182 586.65 461.266V450.767C586.65 443.178 580.465 436.997 572.871 436.997H487.985V378.461C487.985 370.872 481.8 364.691 474.205 364.691H428.185C420.59 364.691 414.405 370.872 414.405 378.461V424.448C414.405 432.037 420.59 438.217 428.185 438.217H486.764V565.101C486.764 572.017 481.127 577.65 474.205 577.65H355.826C348.905 577.65 343.267 572.017 343.267 565.101V484.94C343.267 477.351 337.082 471.171 329.488 471.171H199.286C192.365 471.171 186.727 465.538 186.727 458.621V407.455C189.217 407.142 191.159 405.045 191.159 402.479C191.159 399.694 188.904 397.441 186.117 397.441C183.33 397.441 181.075 399.694 181.075 402.479C181.075 405.061 183.016 407.158 185.506 407.455V458.653C185.506 466.242 191.691 472.422 199.286 472.422H329.503C336.425 472.422 342.062 478.055 342.062 484.971V565.132C342.062 572.721 348.247 578.902 355.841 578.902H474.221C481.816 578.902 488.001 572.721 488.001 565.132V438.249H572.887C579.808 438.249 585.429 443.882 585.429 450.798V461.297C585.429 468.886 591.614 475.067 599.209 475.067H685.958C686.271 477.555 688.369 479.495 690.937 479.495C693.725 479.495 695.979 477.242 695.979 474.456C695.979 471.671 693.725 469.387 690.937 469.387ZM486.748 437.013H428.169C421.248 437.013 415.611 431.38 415.611 424.464V378.476C415.611 371.56 421.248 365.927 428.169 365.927H474.19C481.111 365.927 486.748 371.56 486.748 378.476V437.013Z" fill="url(#paint8_linear)"/>
<rect x="108" y="66" width="648" height="624" fill="url(#paint9_linear)"/>
</g>
<g opacity="0.4" filter="url(#filter0_f)">
<ellipse rx="214.442" ry="216.66" transform="matrix(1 0 0.244899 0.969549 471.502 460.062)" fill="#0CDCFC"/>
</g>
</g>
<defs>
<filter id="filter0_f" x="0.541016" y="0" width="941.922" height="920.125" filterUnits="userSpaceOnUse" color-interpolation-filters="sRGB">
<feFlood flood-opacity="0" result="BackgroundImageFix"/>
<feBlend mode="normal" in="SourceGraphic" in2="BackgroundImageFix" result="shape"/>
<feGaussianBlur stdDeviation="125" result="effect1_foregroundBlur"/>
</filter>
<linearGradient id="paint0_linear" x1="209.218" y1="547.729" x2="709.698" y2="547.729" gradientUnits="userSpaceOnUse">
<stop offset="0.5619" stop-color="#107CA4"/>
<stop offset="1" stop-color="#10749E"/>
</linearGradient>
<linearGradient id="paint1_linear" x1="187.994" y1="316.018" x2="366.295" y2="316.018" gradientUnits="userSpaceOnUse">
<stop offset="0.5619" stop-color="#B3B3B3"/>
<stop offset="1"/>
</linearGradient>
<linearGradient id="paint2_linear" x1="389.352" y1="255.677" x2="619.623" y2="255.677" gradientUnits="userSpaceOnUse">
<stop offset="0.5619" stop-color="#107EA6"/>
<stop offset="1" stop-color="#107BA4"/>
</linearGradient>
<linearGradient id="paint3_linear" x1="185.609" y1="485.876" x2="458.796" y2="485.876" gradientUnits="userSpaceOnUse">
<stop offset="0.5619" stop-color="#107BA4"/>
<stop offset="1" stop-color="#0F729B"/>
</linearGradient>
<linearGradient id="paint4_linear" x1="158.104" y1="355.851" x2="581.878" y2="355.851" gradientUnits="userSpaceOnUse">
<stop offset="0.5619" stop-color="#0F719B"/>
<stop offset="1" stop-color="#107AA2"/>
</linearGradient>
<linearGradient id="paint5_linear" x1="302.403" y1="186.441" x2="551.739" y2="186.441" gradientUnits="userSpaceOnUse">
<stop offset="0.5619" stop-color="#107CA4"/>
<stop offset="1" stop-color="#1077A0"/>
</linearGradient>
<linearGradient id="paint6_linear" x1="195.7" y1="288.733" x2="611.149" y2="288.733" gradientUnits="userSpaceOnUse">
<stop offset="0.5619" stop-color="#10769F"/>
<stop offset="1" stop-color="#1078A0"/>
</linearGradient>
<linearGradient id="paint7_linear" x1="256.15" y1="573.014" x2="606.5" y2="573.014" gradientUnits="userSpaceOnUse">
<stop offset="0.5619" stop-color="#107BA4"/>
<stop offset="1" stop-color="#0E6691"/>
</linearGradient>
<linearGradient id="paint8_linear" x1="181.078" y1="471.807" x2="695.977" y2="471.807" gradientUnits="userSpaceOnUse">
<stop offset="0.5619" stop-color="#107CA5"/>
<stop offset="1" stop-color="#1079A1"/>
</linearGradient>
<linearGradient id="paint9_linear" x1="108" y1="378" x2="756" y2="378" gradientUnits="userSpaceOnUse">
<stop stop-color="#050940"/>
<stop offset="1" stop-color="#050940" stop-opacity="0"/>
</linearGradient>
</defs>
</svg>
