<svg width="552" height="622" viewBox="0 0 522 622" fill="none" xmlns="http://www.w3.org/2000/svg">
<g opacity="0.6">
<mask id="mask0" mask-type="alpha" maskUnits="userSpaceOnUse" x="0" y="49" width="460" height="621">
<rect y="49" width="460" height="621" fill="#C4C4C4"/>
</mask>
<g mask="url(#mask0)">
<path d="M-82.3547 528.064V601.621C-82.3547 609.21 -76.1695 615.391 -68.575 615.391H90.5956C98.19 615.391 104.375 609.21 104.375 601.621V568.778C104.375 561.189 98.19 555.008 90.5956 555.008H45.89C38.9689 555.008 33.3317 549.375 33.3317 542.459V489.885C33.3317 482.969 38.9689 477.335 45.89 477.335H189.277C196.198 477.335 201.835 482.969 201.835 489.885V605.564C201.835 613.153 208.02 619.334 215.615 619.334H276.12C283.714 619.334 289.899 613.153 289.899 605.564V549.047C289.899 542.131 295.537 536.498 302.458 536.498H403.691C404.004 538.986 406.103 540.926 408.671 540.926C411.458 540.926 413.713 538.673 413.713 535.887C413.713 533.102 411.458 530.849 408.671 530.849C406.087 530.849 403.989 532.789 403.691 535.277H302.426C294.832 535.277 288.647 541.458 288.647 549.047V605.564C288.647 612.481 283.01 618.098 276.088 618.098H215.583C208.662 618.098 203.025 612.465 203.025 605.564V489.885C203.025 482.296 196.84 476.115 189.245 476.115H45.8587C38.2642 476.115 32.0791 482.296 32.0791 489.885V542.459C32.0791 550.048 38.2642 556.229 45.8587 556.229H90.5643C97.4854 556.229 103.123 561.862 103.123 568.778V601.621C103.123 608.537 97.4854 614.17 90.5643 614.17H-68.575C-75.4962 614.17 -81.1176 608.537 -81.1176 601.621V528.064C-78.6279 527.751 -76.6862 525.654 -76.6862 523.088C-76.6862 520.303 -78.9411 518.05 -81.7283 518.05C-84.5156 518.05 -86.7704 520.303 -86.7704 523.088C-86.7861 525.654 -84.8444 527.766 -82.3547 528.064Z" fill="url(#paint0_linear)"/>
<path d="M-94.2243 414.622H-1.99457C5.59989 414.622 11.7851 408.441 11.7851 400.852V369.26C11.7851 362.344 17.4222 356.711 24.3434 356.711H60.28C60.5932 359.199 62.6915 361.139 65.2595 361.139C68.0468 361.139 70.3016 358.886 70.3016 356.101C70.3016 353.316 68.0468 351.063 65.2595 351.063C62.6915 351.063 60.5776 353.003 60.28 355.491H24.3277C16.7332 355.491 10.5481 361.671 10.5481 369.26V400.852C10.5481 407.768 4.91092 413.401 -2.01022 413.401H-94.2399C-101.161 413.401 -106.798 407.768 -106.798 400.852V372.828C-106.798 365.912 -101.161 360.279 -94.2399 360.279H-58.178C-50.5835 360.279 -44.3983 354.098 -44.3983 346.509V319.377C-44.3983 311.788 -50.5835 305.607 -58.178 305.607H-90.6541C-97.5752 305.607 -103.212 299.974 -103.212 293.058V266.818C-103.212 259.902 -97.5752 254.269 -90.6541 254.269H-63.5019C-55.9074 254.269 -49.7223 248.088 -49.7223 240.499V231.174C-49.7223 224.258 -44.0851 218.625 -37.164 218.625H6.93088C13.852 218.625 19.4892 224.258 19.4892 231.174V247.478C16.9994 247.791 15.0577 249.888 15.0577 252.454C15.0577 255.239 17.3126 257.492 20.0998 257.492C22.8871 257.492 25.1419 255.239 25.1419 252.454C25.1419 249.888 23.2003 247.775 20.7105 247.478V231.189C20.7105 223.6 14.5253 217.42 6.93088 217.42H-37.1796C-44.7741 217.42 -50.9593 223.6 -50.9593 231.189V240.515C-50.9593 247.431 -56.5964 253.064 -63.5176 253.064H-90.6541C-98.2485 253.064 -104.434 259.245 -104.434 266.834V293.074C-104.434 300.663 -98.2485 306.844 -90.6541 306.844H-58.1466C-51.2255 306.844 -45.5884 312.477 -45.5884 319.393V346.525C-45.5884 353.441 -51.2255 359.074 -58.1466 359.074H-94.2243C-101.819 359.074 -108.004 365.255 -108.004 372.844V400.868C-108.004 408.441 -101.819 414.622 -94.2243 414.622Z" fill="url(#paint1_linear)"/>
<path d="M154.092 328.906C154.405 331.394 156.503 333.334 159.071 333.334C161.858 333.334 164.113 331.081 164.113 328.296C164.113 325.511 161.858 323.258 159.071 323.258C156.503 323.258 154.389 325.198 154.092 327.686H107.131C100.21 327.686 94.5729 322.053 94.5729 315.137V191.79C94.5729 184.874 100.21 179.241 107.131 179.241H263.64C270.561 179.241 276.198 184.874 276.198 191.79V222.724H227.734C220.14 222.724 213.955 228.905 213.955 236.494V250.999C213.955 258.588 220.14 264.768 227.734 264.768H263.655C271.25 264.768 277.435 258.588 277.435 250.999V223.945H313.607C313.92 226.433 316.018 228.373 318.586 228.373C321.373 228.373 323.628 226.12 323.628 223.334C323.628 220.549 321.373 218.296 318.586 218.296C316.018 218.296 313.904 220.236 313.607 222.724H277.435V191.79C277.435 184.201 271.25 178.02 263.655 178.02H107.147C99.5524 178.02 93.3672 184.201 93.3672 191.79V315.137C93.3672 322.726 99.5524 328.906 107.147 328.906H154.092V328.906ZM276.198 250.999C276.198 257.915 270.561 263.532 263.64 263.532H227.734C220.813 263.532 215.176 257.899 215.176 250.999V236.494C215.176 229.578 220.813 223.945 227.734 223.945H276.198V250.999Z" fill="url(#paint2_linear)"/>
<path d="M-2.11959 564.741V407.017C-2.11959 400.101 3.51754 394.468 10.4387 394.468H74.8742C81.7953 394.468 87.4325 400.101 87.4325 407.017V489.806C87.4325 497.395 93.6177 503.576 101.212 503.576H144.602C151.523 503.576 157.161 509.209 157.161 516.125V538.407C154.671 538.719 152.729 540.816 152.729 543.382C152.729 546.168 154.984 548.421 157.771 548.421C160.559 548.421 162.813 546.168 162.813 543.382C162.813 540.816 160.872 538.704 158.382 538.407V516.125C158.382 508.536 152.197 502.355 144.602 502.355H101.212C94.291 502.355 88.6538 496.722 88.6538 489.806V407.017C88.6538 399.428 82.4687 393.247 74.8742 393.247H10.423C2.82856 393.247 -3.35663 399.428 -3.35663 407.017V564.741C-3.35663 571.657 -8.99375 577.29 -15.9149 577.29H-92.1884C-99.1095 577.29 -104.731 571.657 -104.731 564.741V517.486C-102.241 517.173 -100.3 515.077 -100.3 512.51C-100.3 509.725 -102.554 507.472 -105.342 507.472C-108.129 507.472 -110.384 509.725 -110.384 512.51C-110.384 515.077 -108.442 517.189 -105.952 517.486V564.741C-105.952 572.33 -99.7672 578.51 -92.1727 578.51H-15.8992C-8.30477 578.51 -2.11959 572.33 -2.11959 564.741Z" fill="url(#paint3_linear)"/>
<path d="M-132.854 416.296C-130.286 416.296 -128.172 414.355 -127.874 411.868H-57.8644C-50.27 411.868 -44.0848 405.687 -44.0848 398.098V350.28C-44.0848 343.364 -38.4476 337.731 -31.5265 337.731H60.8285C68.4229 337.731 74.6081 331.55 74.6081 323.961V309.159C74.6081 302.243 80.2452 296.61 87.1664 296.61H166.806C173.728 296.61 179.365 302.243 179.365 309.159V366.318C179.365 373.907 185.55 380.088 193.144 380.088H275.869C276.182 382.576 278.281 384.516 280.849 384.516C283.636 384.516 285.891 382.263 285.891 379.478C285.891 376.693 283.636 374.439 280.849 374.439C278.281 374.439 276.167 376.38 275.869 378.868H193.129C186.208 378.868 180.57 373.235 180.57 366.318V309.159C180.57 301.57 174.385 295.39 166.791 295.39H87.1507C79.5563 295.39 73.3711 301.57 73.3711 309.159V323.961C73.3711 330.878 67.734 336.511 60.8285 336.511H-31.5265C-39.121 336.511 -45.3061 342.691 -45.3061 350.28V398.098C-45.3061 405.014 -50.9433 410.647 -57.8644 410.647H-127.874C-128.188 408.159 -130.286 406.219 -132.854 406.219C-135.641 406.219 -137.896 408.472 -137.896 411.257C-137.896 414.043 -135.641 416.296 -132.854 416.296Z" fill="url(#paint4_linear)"/>
<path d="M20.1781 91.4282C12.5836 91.4282 6.39844 97.6088 6.39844 105.198V272.107C6.39844 279.696 12.5836 285.876 20.1781 285.876H159.587C167.182 285.876 173.367 279.696 173.367 272.107V215.605C173.367 208.688 179.004 203.071 185.925 203.071H245.71C246.023 205.559 248.122 207.499 250.69 207.499C253.477 207.499 255.732 205.246 255.732 202.461C255.732 199.676 253.477 197.422 250.69 197.422C248.122 197.422 246.008 199.363 245.71 201.851H185.925C178.331 201.851 172.146 208.031 172.146 215.62V272.122C172.146 279.038 166.509 284.671 159.587 284.671H20.1781C13.2569 284.671 7.61981 279.038 7.61981 272.122V105.198C7.61981 98.2816 13.2569 92.6486 20.1781 92.6486H174.667C174.98 95.1366 177.078 97.0768 179.646 97.0768C182.433 97.0768 184.688 94.8236 184.688 92.0384C184.688 89.2532 182.433 87 179.646 87C177.078 87 174.964 88.9403 174.667 91.4282H20.1781V91.4282Z" fill="url(#paint5_linear)"/>
<path d="M310.099 289.819C307.515 289.819 305.417 291.76 305.119 294.248H172.443C165.522 294.248 159.901 288.615 159.901 281.699V261.545C159.901 253.956 153.715 247.775 146.121 247.775H50.8535C43.2591 247.775 37.0739 253.956 37.0739 261.545V311.475C37.0739 318.391 31.4368 324.024 24.5313 324.024H-90.2782C-90.5914 321.536 -92.6897 319.596 -95.2577 319.596C-98.045 319.596 -100.3 321.849 -100.3 324.635C-100.3 327.42 -98.045 329.673 -95.2577 329.673C-92.6897 329.673 -90.5758 327.733 -90.2782 325.245H24.5156C32.1101 325.245 38.2953 319.064 38.2953 311.475V261.545C38.2953 254.629 43.9324 248.996 50.8535 248.996H146.121C153.042 248.996 158.679 254.629 158.679 261.545V281.699C158.679 289.287 164.864 295.468 172.459 295.468H305.135C305.448 297.956 307.546 299.896 310.114 299.896C312.902 299.896 315.157 297.643 315.157 294.858C315.157 292.073 312.886 289.819 310.099 289.819Z" fill="url(#paint6_linear)"/>
<path d="M305.448 507.222C302.864 507.222 300.766 509.162 300.469 511.65H264C256.405 511.65 250.22 517.831 250.22 525.42V598.398C250.22 605.314 244.583 610.947 237.677 610.947H174.808C167.886 610.947 162.249 605.314 162.249 598.398V578.448C162.249 570.859 156.064 564.678 148.47 564.678H84.4726C76.8781 564.678 70.693 570.859 70.693 578.448V632.243C70.693 639.159 65.0558 644.792 58.1347 644.792H-21.6464C-28.5675 644.792 -34.2046 639.159 -34.2046 632.243V510.054C-31.7149 509.741 -29.7732 507.644 -29.7732 505.078C-29.7732 502.293 -32.0281 500.04 -34.8153 500.04C-37.6026 500.04 -39.8574 502.293 -39.8574 505.078C-39.8574 507.66 -37.9157 509.757 -35.426 510.054V632.243C-35.426 639.832 -29.2408 646.013 -21.6464 646.013H58.1503C65.7448 646.013 71.93 639.832 71.93 632.243V578.448C71.93 571.532 77.5671 565.899 84.4883 565.899H148.485C155.406 565.899 161.044 571.532 161.044 578.448V598.398C161.044 605.987 167.229 612.168 174.823 612.168H237.693C245.287 612.168 251.473 605.987 251.473 598.398V525.42C251.473 518.504 257.11 512.871 264.031 512.871H300.5C300.813 515.358 302.911 517.299 305.479 517.299C308.267 517.299 310.521 515.045 310.521 512.26C310.521 509.475 308.235 507.222 305.448 507.222Z" fill="url(#paint7_linear)"/>
<path d="M394.937 469.387C392.354 469.387 390.255 471.327 389.958 473.815H303.209C296.288 473.815 290.65 468.182 290.65 461.266V450.767C290.65 443.178 284.465 436.997 276.871 436.997H191.985V378.461C191.985 370.872 185.8 364.691 178.205 364.691H132.185C124.59 364.691 118.405 370.872 118.405 378.461V424.448C118.405 432.037 124.59 438.217 132.185 438.217H190.764V565.101C190.764 572.017 185.127 577.65 178.205 577.65H59.8257C52.9046 577.65 47.2674 572.017 47.2674 565.101V484.94C47.2674 477.351 41.0822 471.171 33.4878 471.171H-96.7142C-103.635 471.171 -109.273 465.538 -109.273 458.621V407.455C-106.783 407.142 -104.841 405.045 -104.841 402.479C-104.841 399.694 -107.096 397.441 -109.883 397.441C-112.67 397.441 -114.925 399.694 -114.925 402.479C-114.925 405.061 -112.984 407.158 -110.494 407.455V458.653C-110.494 466.242 -104.309 472.422 -96.7142 472.422H33.5034C40.4246 472.422 46.0617 478.055 46.0617 484.971V565.132C46.0617 572.721 52.2469 578.902 59.8414 578.902H178.221C185.816 578.902 192.001 572.721 192.001 565.132V438.249H276.886C283.808 438.249 289.429 443.882 289.429 450.798V461.297C289.429 468.886 295.614 475.067 303.209 475.067H389.958C390.271 477.555 392.369 479.495 394.937 479.495C397.725 479.495 399.979 477.242 399.979 474.456C399.979 471.671 397.725 469.387 394.937 469.387ZM190.748 437.013H132.169C125.248 437.013 119.611 431.38 119.611 424.464V378.476C119.611 371.56 125.248 365.927 132.169 365.927H178.19C185.111 365.927 190.748 371.56 190.748 378.476V437.013V437.013Z" fill="url(#paint8_linear)"/>
<rect x="-188" y="66" width="648" height="624" fill="url(#paint9_linear)"/>
</g>
<g opacity="0.4" filter="url(#filter0_f)">
<ellipse rx="214.442" ry="216.66" transform="matrix(1 0 0.244899 0.969549 175.502 460.062)" fill="#0CDCFC"/>
</g>
</g>
<defs>
<filter id="filter0_f" x="-295.459" y="0" width="941.922" height="920.125" filterUnits="userSpaceOnUse" color-interpolation-filters="sRGB">
<feFlood flood-opacity="0" result="BackgroundImageFix"/>
<feBlend mode="normal" in="SourceGraphic" in2="BackgroundImageFix" result="shape"/>
<feGaussianBlur stdDeviation="125" result="effect1_foregroundBlur"/>
</filter>
<linearGradient id="paint0_linear" x1="-86.7815" y1="547.729" x2="413.698" y2="547.729" gradientUnits="userSpaceOnUse">
<stop offset="0.5619" stop-color="#107CA4"/>
<stop offset="1" stop-color="#10749E"/>
</linearGradient>
<linearGradient id="paint1_linear" x1="-108.006" y1="316.018" x2="70.2946" y2="316.018" gradientUnits="userSpaceOnUse">
<stop offset="0.5619" stop-color="#B3B3B3"/>
<stop offset="1"/>
</linearGradient>
<linearGradient id="paint2_linear" x1="93.3518" y1="255.677" x2="323.623" y2="255.677" gradientUnits="userSpaceOnUse">
<stop offset="0.5619" stop-color="#107EA6"/>
<stop offset="1" stop-color="#107BA4"/>
</linearGradient>
<linearGradient id="paint3_linear" x1="-110.391" y1="485.876" x2="162.796" y2="485.876" gradientUnits="userSpaceOnUse">
<stop offset="0.5619" stop-color="#107BA4"/>
<stop offset="1" stop-color="#0F729B"/>
</linearGradient>
<linearGradient id="paint4_linear" x1="-137.896" y1="355.851" x2="285.878" y2="355.851" gradientUnits="userSpaceOnUse">
<stop offset="0.5619" stop-color="#0F719B"/>
<stop offset="1" stop-color="#107AA2"/>
</linearGradient>
<linearGradient id="paint5_linear" x1="6.40298" y1="186.441" x2="255.739" y2="186.441" gradientUnits="userSpaceOnUse">
<stop offset="0.5619" stop-color="#107CA4"/>
<stop offset="1" stop-color="#1077A0"/>
</linearGradient>
<linearGradient id="paint6_linear" x1="-100.3" y1="288.733" x2="315.149" y2="288.733" gradientUnits="userSpaceOnUse">
<stop offset="0.5619" stop-color="#10769F"/>
<stop offset="1" stop-color="#1078A0"/>
</linearGradient>
<linearGradient id="paint7_linear" x1="-39.8504" y1="573.014" x2="310.5" y2="573.014" gradientUnits="userSpaceOnUse">
<stop offset="0.5619" stop-color="#107BA4"/>
<stop offset="1" stop-color="#0E6691"/>
</linearGradient>
<linearGradient id="paint8_linear" x1="-114.922" y1="471.807" x2="399.977" y2="471.807" gradientUnits="userSpaceOnUse">
<stop offset="0.5619" stop-color="#107CA5"/>
<stop offset="1" stop-color="#1079A1"/>
</linearGradient>
<linearGradient id="paint9_linear" x1="-188" y1="378" x2="460" y2="378" gradientUnits="userSpaceOnUse">
<stop stop-color="#050940"/>
<stop offset="1" stop-color="#050940" stop-opacity="0"/>
</linearGradient>
</defs>
</svg>
