<svg width="16" height="13" viewBox="0 0 16 13" fill="none" xmlns="http://www.w3.org/2000/svg">
<path d="M13.9572 3.15194C14.5898 2.70278 15.1219 2.14213 15.5556 1.49657V1.49593C14.9768 1.74935 14.361 1.91787 13.7181 1.99954C14.3792 1.60481 14.8841 0.984537 15.1213 0.237222C14.5049 0.604722 13.8244 0.863981 13.0991 1.00917C12.5138 0.385648 11.6796 0 10.7696 0C9.00407 0 7.58269 1.43306 7.58269 3.18954C7.58269 3.44231 7.60407 3.68537 7.65657 3.91676C5.00565 3.78713 2.65935 2.51676 1.08306 0.580741C0.808241 1.05843 0.646204 1.60481 0.646204 2.19269C0.646204 3.29713 1.21463 4.27583 2.06306 4.84296C1.55037 4.83324 1.04806 4.68417 0.622222 4.45019V4.48519C0.622222 6.03491 1.72731 7.32213 3.17722 7.61898C2.91732 7.69028 2.63472 7.72398 2.34111 7.72398C2.13694 7.72398 1.93083 7.71232 1.73769 7.66954C2.15056 8.93213 3.3237 9.86093 4.71722 9.89139C3.63222 10.7398 2.25426 11.2512 0.76287 11.2512C0.501667 11.2512 0.250833 11.2395 0 11.2078C1.41296 12.1184 3.08648 12.6389 4.89222 12.6389C10.5201 12.6389 14.188 7.9437 13.9572 3.15194Z" fill="white"/>
</svg>
